<?xml version="1.0" encoding="utf-8"?>
<!-- Generator: Adobe Illustrator 19.0.0, SVG Export Plug-In . SVG Version: 6.00 Build 0)  -->
<svg version="1.1" id="Capa_1" xmlns="http://www.w3.org/2000/svg" xmlns:xlink="http://www.w3.org/1999/xlink" x="0px" y="0px"
	 viewBox="-435 255.8 88.3 51.2" style="enable-background:new -435 255.8 88.3 51.2;" xml:space="preserve">
<style type="text/css">
	.st0{fill:#ffffff;}
</style>
<g>
	<path class="st0" d="M-426.5,271.3v-5.1h-3.6v1.8h1.5v2c-0.2,0-0.6,0.1-1.1,0.1c-1.8,0-3-1.2-3-3.2c0-2.1,1.4-3.1,3.2-3.1
		c1,0,1.7,0.2,2.2,0.4l0.5-1.7c-0.5-0.3-1.5-0.5-2.7-0.5c-3.2,0-5.5,1.8-5.5,5c0,1.4,0.5,2.7,1.4,3.5c0.9,0.9,2.1,1.3,3.9,1.3
		C-428.4,271.8-427.2,271.5-426.5,271.3z"/>
	<path class="st0" d="M-422.6,269.2h2.9l0.7,2.5h2.3l-3-9.7h-2.9l-3,9.7h2.3L-422.6,269.2z M-421.6,265.6c0.1-0.6,0.3-1.3,0.4-1.9
		c0.2,0.6,0.3,1.3,0.5,1.9l0.6,2h-2.1L-421.6,265.6z"/>
	<path class="st0" d="M-413.3,268h0.7c0.9,0,1.3,0.3,1.6,1.5c0.3,1.1,0.5,1.9,0.7,2.2h2.2c-0.2-0.4-0.5-1.6-0.8-2.7
		c-0.3-0.9-0.6-1.5-1.3-1.8c0.8-0.3,1.7-1.2,1.7-2.4c0-0.9-0.3-1.5-0.9-2c-0.7-0.6-1.7-0.8-3.1-0.8c-1.2,0-2.2,0.1-2.9,0.2h-0.1v9.6
		h2.2L-413.3,268L-413.3,268z M-413.3,263.7c0.2-0.1,0.5-0.1,1-0.1c1,0,1.6,0.4,1.6,1.3s-0.6,1.4-1.7,1.4h-0.9V263.7z"/>
	<path class="st0" d="M-399.9,270.5c0.9-0.8,1.6-2.1,1.6-3.9c0-1.7-0.6-2.9-1.6-3.6s-2.2-1-4-1c-1.2,0-2.2,0.1-3,0.2v9.4
		c0.6,0,1.4,0.1,2.5,0.1C-402.5,271.7-400.9,271.3-399.9,270.5z M-404.6,263.7c0.2-0.1,0.5-0.1,1-0.1c1.8,0,3,1.1,3,3.1
		c0,2.3-1.3,3.4-3.3,3.4c-0.3,0-0.5,0-0.7,0V263.7z"/>
	<polygon class="st0" points="-390.8,269.9 -394.8,269.9 -394.8,267.6 -391.2,267.6 -391.2,265.8 -394.8,265.8 -394.8,263.8
		-391,263.8 -391,262 -397,262 -397,271.7 -390.8,271.7 	"/>
	<path class="st0" d="M-383.3,264.8c0,1.4,0.1,2.7,0.2,4c-0.5-1.1-1-2.3-1.6-3.3l-2-3.5h-2.6v9.7h2v-2.9c0-1.6,0-2.9-0.1-4.2
		c0.5,1.1,1.1,2.4,1.7,3.4l2.1,3.7h2.3V262h-2V264.8z"/>
	<rect x="-379.4" y="262" class="st0" width="2.2" height="9.7"/>
	<path class="st0" d="M-373.3,268.8c0-1.6,0-2.9-0.1-4.2c0.5,1.1,1.1,2.4,1.7,3.4l2.1,3.7h2.3V262h-2v2.8c0,1.4,0.1,2.7,0.2,4
		c-0.5-1.1-1-2.3-1.6-3.3l-2-3.5h-2.6v9.7h2V268.8z"/>
	<path class="st0" d="M-361,266.2v1.8h1.5v2c-0.2,0-0.6,0.1-1.1,0.1c-1.8,0-3-1.2-3-3.2c0-2.1,1.4-3.1,3.2-3.1c1,0,1.7,0.2,2.2,0.4
		l0.5-1.7c-0.5-0.3-1.5-0.5-2.7-0.5c-3.2,0-5.5,1.8-5.5,5c0,1.4,0.5,2.7,1.4,3.5c0.9,0.9,2.1,1.3,3.9,1.3c1.3,0,2.5-0.3,3.2-0.5
		v-5.1L-361,266.2L-361,266.2z"/>
	<path class="st0" d="M-424,278.4c-4.8,0-8.2,3.6-8.2,7.8c0,4.2,3.1,6.8,6.8,6.8c1.9,0,3.3-0.6,4.3-1.6h0.1c-0.4,1.6-1.3,3-2.7,4
		c-1.2,0.8-2.8,1.2-4.3,1.3c-1,0.1-1.6,0.1-2.2,0v4.1c0.6,0,1.4,0.1,2.3,0c3.4-0.1,6.2-1.1,8.3-3c2.4-2.2,3.8-5.5,3.8-10
		C-415.8,282.7-418.4,278.4-424,278.4z M-421.2,287.9c-0.5,0.7-1.4,1.4-2.8,1.4c-2.1,0-3.1-1.6-3.1-3.5c0-2.3,1.2-3.8,3-3.8
		c2.3,0,3.2,2.3,3.2,4.6C-420.9,287.3-421,287.6-421.2,287.9z"/>
	<path class="st0" d="M-405.3,278.2c-5.6,0-8.3,5-8.3,11.3c0,6.1,2.5,11.2,8.1,11.2s8.3-4.6,8.3-11.3
		C-397.2,283.4-399.5,278.3-405.3,278.2z M-405.3,296.9c-1.9,0-3.1-2.4-3.1-7.4c-0.1-5,1.2-7.4,3-7.4c2.1,0,3.1,2.6,3.1,7.4
		C-402.3,294.4-403.3,296.9-405.3,296.9z"/>
	<polygon class="st0" points="-393.2,281.3 -392.4,285.1 -388.2,283.1 -388.2,300.3 -383.2,300.3 -383.2,278.6 -387.4,278.6 	"/>
	<path class="st0" d="M-368.2,278.2c-5.6,0-8.3,5-8.3,11.3c0,6.1,2.5,11.2,8.1,11.2s8.3-4.6,8.3-11.3
		C-360.1,283.4-362.3,278.3-368.2,278.2z M-368.2,296.9c-1.9,0-3.1-2.4-3.1-7.4c-0.1-5,1.2-7.4,3-7.4c2.1,0,3.1,2.6,3.1,7.4
		C-365.2,294.4-366.2,296.9-368.2,296.9z"/>
</g>
</svg>
